<?xml version="1.0" standalone="no"?>
<!DOCTYPE svg PUBLIC "-//W3C//DTD SVG 20010904//EN"
 "http://www.w3.org/TR/2001/REC-SVG-20010904/DTD/svg10.dtd">
<svg version="1.0" xmlns="http://www.w3.org/2000/svg"
 width="256.000000pt" height="256.000000pt" viewBox="0 0 256.000000 256.000000"
 preserveAspectRatio="xMidYMid meet">

<g transform="translate(0.000000,256.000000) scale(0.100000,-0.100000)"
fill="#000000" stroke="none">
<path d="M224 2239 c-18 -20 -19 -50 -24 -698 l-5 -676 -97 -188 c-92 -177
-98 -192 -98 -248 0 -63 18 -112 45 -123 22 -8 2448 -8 2470 0 27 11 45 60 45
123 0 56 -6 71 -97 248 l-98 188 -5 676 c-5 648 -6 678 -24 698 l-19 21 -1037
0 -1037 0 -19 -21z m2056 -684 l0 -635 -1000 0 -1000 0 0 635 0 635 1000 0
1000 0 0 -635z m98 -875 l84 -160 -414 0 -414 0 -19 76 c-32 128 -7 119 -335
119 -328 0 -303 9 -335 -119 l-19 -76 -414 0 -414 0 84 160 83 160 1015 0
1015 0 83 -160z m-836 -100 l16 -60 -278 0 -278 0 16 60 16 60 246 0 246 0 16
-60z m938 -175 l0 -35 -1200 0 -1200 0 0 35 0 35 1200 0 1200 0 0 -35z"/>
</g>
</svg>
